<?xml version="1.0" encoding="utf-8"?>
<!-- Generator: Adobe Illustrator 23.0.5, SVG Export Plug-In . SVG Version: 6.00 Build 0)  -->
<svg version="1.1" id="Capa_1" xmlns="http://www.w3.org/2000/svg" xmlns:xlink="http://www.w3.org/1999/xlink" x="0px" y="0px"
	 viewBox="0 0 27 27" style="enable-background:new 0 0 27 27;" xml:space="preserve">
<style type="text/css">
	.st0{fill:none;stroke:#000000;stroke-miterlimit:10;}
	.st1{fill:none;stroke:#000000;stroke-width:0.5;stroke-miterlimit:10;}
	.st2{enable-background:new    ;}
	.st3{fill:#FF0000;}
	.st4{fill:#0000FF;}
</style>
<g>
	<path class="st0" d="M54.1,21.7h-9.3c-1.5,0-2.7-1.2-2.7-2.7V8c0-1.5,1.2-2.7,2.7-2.7h9.3c1.5,0,2.7,1.2,2.7,2.7v11
		C56.8,20.6,55.6,21.7,54.1,21.7z"/>
	<g>
		<g>
			<line class="st1" x1="48.4" y1="9.6" x2="54.3" y2="9.6"/>
			<line class="st1" x1="48.4" y1="8.6" x2="50" y2="8.6"/>
		</g>
		<circle class="st1" cx="45.6" cy="8.9" r="1"/>
	</g>
	<g>
		<g>
			<line class="st1" x1="48.2" y1="14.2" x2="54.1" y2="14.2"/>
			<line class="st1" x1="48.2" y1="13.2" x2="49.8" y2="13.2"/>
		</g>
		<circle class="st1" cx="45.4" cy="13.5" r="1"/>
	</g>
	<g>
		<g>
			<line class="st1" x1="48.2" y1="18.8" x2="54.1" y2="18.8"/>
			<line class="st1" x1="48.2" y1="17.8" x2="49.8" y2="17.8"/>
		</g>
		<circle class="st1" cx="45.4" cy="18.1" r="1"/>
	</g>
</g>
<path class="st0" d="M-27.5,41.3"/>
<path class="st0" d="M-22.7,41.3"/>
<g class="st2">
	<path class="st3" d="M-25.8,13.6h-1.9v-0.8h1.9h0.8h1.9v0.8H-25H-25.8z"/>
</g>
<path class="st0" d="M-27.5,5.3"/>
<path class="st0" d="M-22.7,5.3"/>
<g>
	<polyline class="st0" points="-21,22.2 -21,5.2 -29.8,5.2 -29.8,22.2 	"/>
	<polygon points="-20.8,5.2 -15.4,4.4 -15.4,23 -20.8,21.7 	"/>
</g>
<path class="st0" d="M44.6,41.3"/>
<path class="st0" d="M49.3,41.3"/>
<g class="st2">
	<path class="st4" d="M10.3,15.5v-1.9H8.4v-0.8h1.9v-1.9h0.8v1.9H13v0.8h-1.9v1.9H10.3z"/>
</g>
<path class="st0" d="M8.6,5.3"/>
<path class="st0" d="M13.4,5.3"/>
<g>
	<polyline class="st0" points="15.1,22.2 15.1,5.2 6.3,5.2 6.3,22.2 	"/>
	<polygon points="15.4,5.2 20.7,4.4 20.7,23 15.4,21.7 	"/>
</g>
<g>
	<g>
		<path class="st0" d="M89.7,21.6h-9.2c-1.5,0-2.7-1.2-2.7-2.7V8c0-1.5,1.2-2.7,2.7-2.7h9.2c1.5,0,2.7,1.2,2.7,2.7v10.9
			C92.4,20.5,91.2,21.6,89.7,21.6z"/>
	</g>
	<g>
		<rect x="88.2" y="7.4" transform="matrix(0.866 -0.5 0.5 0.866 8.3892 47.6783)" width="9.9" height="1.5"/>
		<polygon points="88.5,10 87.7,11.3 89.3,11.3 		"/>
	</g>
	<g>
		<g>
			<line class="st1" x1="83.9" y1="12.3" x2="90.5" y2="12.3"/>
			<line class="st1" x1="83.9" y1="11.2" x2="85.7" y2="11.2"/>
		</g>
		<g>
			<line class="st1" x1="83.9" y1="14.3" x2="90.5" y2="14.3"/>
			<line class="st1" x1="83.9" y1="13.2" x2="88.2" y2="13.2"/>
		</g>
		<circle class="st1" cx="80.8" cy="11.5" r="1.1"/>
	</g>
</g>
<g>
	<g>
		<polygon points="-31,48.6 -24.9,52.1 -24.9,45.1 		"/>
	</g>
	<rect x="-25" y="47.2" width="10.6" height="2.7"/>
	<polygon points="-19.7,54 -17.1,50 -14.4,50 -17,54 	"/>
</g>
<path class="st0" d="M8.6,41.3"/>
<path class="st0" d="M13.4,41.3"/>
<g>
	<g>
		<polyline class="st0" points="15.1,58.2 15.1,41.2 6.3,41.2 6.3,58.2 		"/>
		<polygon points="15.4,41.2 20.7,40.4 20.7,59 15.4,57.7 		"/>
	</g>
	<g>
		<path class="st4" d="M8.2,49.8l-0.3,0.9H7.5l1-2.8h0.4l1,2.8H9.5l-0.3-0.9H8.2z M9.1,49.5l-0.3-0.8c-0.1-0.2-0.1-0.4-0.1-0.5h0
			c0,0.2-0.1,0.3-0.1,0.5l-0.3,0.8H9.1z"/>
		<path class="st4" d="M10.2,50.5c0-0.2,0.1-0.3,0.3-0.3s0.2,0.1,0.2,0.3c0,0.2-0.1,0.3-0.3,0.3C10.3,50.8,10.2,50.6,10.2,50.5z"/>
		<path class="st4" d="M11.6,49.8l-0.3,0.9h-0.4l1-2.8h0.4l1,2.8h-0.4l-0.3-0.9H11.6z M12.6,49.5l-0.3-0.8c-0.1-0.2-0.1-0.4-0.1-0.5
			h0c0,0.2-0.1,0.3-0.1,0.5l-0.3,0.8H12.6z"/>
		<path class="st4" d="M13.6,50.5c0-0.2,0.1-0.3,0.3-0.3s0.2,0.1,0.2,0.3c0,0.2-0.1,0.3-0.3,0.3C13.7,50.8,13.6,50.6,13.6,50.5z"/>
	</g>
</g>
<rect x="40.8" y="56.5" width="17.4" height="1.4"/>
</svg>
