<?xml version="1.0" encoding="utf-8"?>
<!-- Generator: Adobe Illustrator 23.0.5, SVG Export Plug-In . SVG Version: 6.00 Build 0)  -->
<svg version="1.1" xmlns="http://www.w3.org/2000/svg" xmlns:xlink="http://www.w3.org/1999/xlink" x="0px" y="0px"
	 viewBox="0 0 27 27" style="enable-background:new 0 0 27 27;" xml:space="preserve">
<style type="text/css">
	.st0{fill:none;stroke:#FFFFFF;stroke-miterlimit:10;}
	.st1{fill:none;stroke:#FFFFFF;stroke-linecap:round;stroke-miterlimit:10;}
</style>
<g id="grid">
	<g>
	</g>
</g>
<g id="Capa_2">
	<path class="st0" d="M22.1,23H4.9C4.4,23,4,22.6,4,22.1v-0.9c0-0.5,0.4-0.9,0.9-0.9h17.2c0.5,0,0.9,0.4,0.9,0.9v0.9
		C23,22.6,22.6,23,22.1,23z"/>
	<path class="st0" d="M19.3,6.8H7.7c-0.5,0-1,0.4-1,1v11.5c0,0.5,0.4,1,1,1h11.5c0.5,0,1-0.4,1-1V7.8C20.3,7.2,19.8,6.8,19.3,6.8z"
		/>
	<line class="st1" x1="9.9" y1="10.1" x2="17.1" y2="10.1"/>
	<line class="st1" x1="9.9" y1="13.4" x2="17" y2="13.4"/>
	<line class="st1" x1="9.9" y1="16.8" x2="17" y2="16.8"/>
</g>
</svg>
