<?xml version="1.0" encoding="utf-8"?>
<!-- Generator: Adobe Illustrator 23.0.5, SVG Export Plug-In . SVG Version: 6.00 Build 0)  -->
<svg version="1.1" id="Capa_1" xmlns="http://www.w3.org/2000/svg" xmlns:xlink="http://www.w3.org/1999/xlink" x="0px" y="0px"
	 viewBox="0 0 25 25" style="enable-background:new 0 0 25 25;" xml:space="preserve">
<style type="text/css">
	.st0{fill:none;stroke:#000000;stroke-miterlimit:10;}
	.st1{fill:none;stroke:#000000;stroke-width:0.5;stroke-miterlimit:10;}
</style>
<g>
	<path class="st0" d="M17.1,20.7H7.8c-1.5,0-2.7-1.2-2.7-2.7V7c0-1.5,1.2-2.7,2.7-2.7h9.3c1.5,0,2.7,1.2,2.7,2.7v11
		C19.8,19.6,18.6,20.7,17.1,20.7z"/>
	<g>
		<g>
			<line class="st1" x1="11.4" y1="8.6" x2="17.4" y2="8.6"/>
			<line class="st1" x1="11.4" y1="7.6" x2="13.1" y2="7.6"/>
		</g>
		<circle class="st1" cx="8.7" cy="7.9" r="1"/>
	</g>
	<g>
		<g>
			<line class="st1" x1="11.2" y1="13.2" x2="17.1" y2="13.2"/>
			<line class="st1" x1="11.2" y1="12.2" x2="12.8" y2="12.2"/>
		</g>
		<circle class="st1" cx="8.4" cy="12.5" r="1"/>
	</g>
	<g>
		<g>
			<line class="st1" x1="11.2" y1="17.8" x2="17.1" y2="17.8"/>
			<line class="st1" x1="11.2" y1="16.8" x2="12.8" y2="16.8"/>
		</g>
		<circle class="st1" cx="8.4" cy="17.1" r="1"/>
	</g>
</g>
</svg>
