<?xml version="1.0" encoding="utf-8"?>
<!-- Generator: Adobe Illustrator 23.0.5, SVG Export Plug-In . SVG Version: 6.00 Build 0)  -->
<svg version="1.1" id="Capa_1" xmlns="http://www.w3.org/2000/svg" xmlns:xlink="http://www.w3.org/1999/xlink" x="0px" y="0px"
	 viewBox="0 0 27 27" style="enable-background:new 0 0 27 27;" xml:space="preserve">
<style type="text/css">
	.st0{fill:none;stroke:#000000;stroke-miterlimit:10;}
	.st1{fill:none;stroke:#000000;stroke-width:0.5;stroke-miterlimit:10;}
	.st2{enable-background:new    ;}
	.st3{fill:#FF0000;}
	.st4{fill:#0000FF;}
	.st5{fill:none;stroke:#211915;stroke-miterlimit:10;}
	.st6{fill:none;stroke:#0000FF;stroke-width:0.75;stroke-miterlimit:10;}
</style>
<g>
	<polyline class="st5" points="10.6,21.7 10.6,12.5 16.4,12.5 16.4,21.7 	"/>
	<polygon class="st5" points="22.2,22 4.8,22 4.8,8.9 11.8,4.7 15.4,4.7 22.2,8.9 	"/>
</g>
<g>
	<path class="st3" d="M12.6,6.9l0.5,0.6c0.1,0.2,0.3,0.3,0.4,0.5h0c0.1-0.2,0.3-0.3,0.4-0.5l0.5-0.6h0.8l-1.3,1.5l1.3,1.6h-0.8
		l-0.6-0.7c-0.2-0.2-0.3-0.3-0.4-0.5h0c-0.1,0.2-0.3,0.3-0.4,0.5l-0.6,0.7h-0.8l1.4-1.5l-1.3-1.5H12.6z"/>
</g>
</svg>
