<?xml version="1.0" encoding="utf-8"?>
<!-- Generator: Adobe Illustrator 23.0.5, SVG Export Plug-In . SVG Version: 6.00 Build 0)  -->
<svg version="1.1" id="Capa_1" xmlns="http://www.w3.org/2000/svg" xmlns:xlink="http://www.w3.org/1999/xlink" x="0px" y="0px"
	 viewBox="0 0 27 27" style="enable-background:new 0 0 27 27;" xml:space="preserve">
<style type="text/css">
	.st0{fill:none;stroke:#000000;stroke-miterlimit:10;}
	.st1{fill:none;stroke:#000000;stroke-width:0.5;stroke-miterlimit:10;}
	.st2{enable-background:new    ;}
	.st3{fill:#FF0000;}
	.st4{fill:#0000FF;}
</style>
<g>
	<g>
		<path class="st0" d="M17.8,21.6H8.6c-1.5,0-2.7-1.2-2.7-2.7V8c0-1.5,1.2-2.7,2.7-2.7h9.2c1.5,0,2.7,1.2,2.7,2.7v10.9
			C20.5,20.5,19.3,21.6,17.8,21.6z"/>
	</g>
	<g>
		<rect x="16.4" y="7.4" transform="matrix(0.866 -0.5 0.5 0.866 -1.204 11.75)" width="9.9" height="1.5"/>
		<polygon points="16.6,10 15.8,11.3 17.4,11.3 		"/>
	</g>
	<g>
		<g>
			<line class="st1" x1="12" y1="12.3" x2="18.6" y2="12.3"/>
			<line class="st1" x1="12" y1="11.2" x2="13.8" y2="11.2"/>
		</g>
		<g>
			<line class="st1" x1="12" y1="14.3" x2="18.6" y2="14.3"/>
			<line class="st1" x1="12" y1="13.2" x2="16.3" y2="13.2"/>
		</g>
		<circle class="st1" cx="8.9" cy="11.5" r="1.1"/>
	</g>
</g>
</svg>
