<?xml version="1.0" encoding="utf-8"?>
<!-- Generator: Adobe Illustrator 23.0.5, SVG Export Plug-In . SVG Version: 6.00 Build 0)  -->
<svg version="1.1" xmlns="http://www.w3.org/2000/svg" xmlns:xlink="http://www.w3.org/1999/xlink" x="0px" y="0px"
	 viewBox="0 0 27 27" style="enable-background:new 0 0 27 27;" xml:space="preserve">
<style type="text/css">
	.st0{fill:#FFFFFF;}
	.st1{fill:#E2E2E2;}
	.st2{fill:#211915;}
</style>
<g id="Capa_1">
	<g>
	</g>
</g>
<g id="Capa_2">
	<g>
		<path class="st0" d="M20.5,18.8c-0.2-0.4-0.6-0.8-1-1l-3.1-1.7c-0.3-0.2-0.7-0.3-1-0.3l-0.1,0c-0.5,0.2-1.1,0.4-1.7,0.4
			c-0.6,0-1.2-0.2-1.8-0.4c-0.4,0-0.7,0.1-1,0.3l-3.2,1.8c-0.4,0.2-0.8,0.6-1,1l-2.3,4h18.6L20.5,18.8z"/>
		<path class="st0" d="M15.3,14.9c1.5-0.7,2.5-2.1,2.5-3.8c0-2.3-1.9-4.2-4.2-4.2s-4.2,1.9-4.2,4.2c0,1.7,1,3.1,2.4,3.8
			c0.5,0.3,1.1,0.4,1.8,0.4C14.2,15.3,14.7,15.2,15.3,14.9z"/>
	</g>
	<g>
		<g>
			<circle class="st1" cx="21.8" cy="5.9" r="2.4"/>
		</g>
		<g>
			<path class="st2" d="M21.9,4.5v1c0,0.1,0.1,0.3,0.3,0.3h1v0.3h-1c-0.1,0-0.3,0.1-0.3,0.3v1h-0.3v-1c0-0.1-0.1-0.3-0.3-0.3h-1V5.8
				h1c0.1,0,0.3-0.1,0.3-0.3v-1H21.9z"/>
		</g>
	</g>
</g>
</svg>
